<svg xmlns="http://www.w3.org/2000/svg" xmlns:xlink="http://www.w3.org/1999/xlink" width="1200" zoomAndPan="magnify" viewBox="0 0 900 187.499995" height="250" preserveAspectRatio="xMidYMid meet" version="1.0"><defs><g/><clipPath id="3027183ef5"><path d="M 63.945312 51.875 L 114.75 51.875 L 114.75 143.359375 L 63.945312 143.359375 Z M 63.945312 51.875 " clip-rule="nonzero"/></clipPath><clipPath id="d906213563"><path d="M 71.425781 51.875 L 107.269531 51.875 C 111.398438 51.875 114.75 55.222656 114.75 59.355469 L 114.75 135.722656 C 114.75 139.851562 111.398438 143.203125 107.269531 143.203125 L 71.425781 143.203125 C 67.292969 143.203125 63.945312 139.851562 63.945312 135.722656 L 63.945312 59.355469 C 63.945312 55.222656 67.292969 51.875 71.425781 51.875 Z M 71.425781 51.875 " clip-rule="nonzero"/></clipPath><clipPath id="1ee5a5f263"><path d="M 19.898438 92.792969 L 114.8125 92.792969 L 114.8125 143.203125 L 19.898438 143.203125 Z M 19.898438 92.792969 " clip-rule="nonzero"/></clipPath><clipPath id="c5e298a2b2"><path d="M 27.378906 92.792969 L 107.269531 92.792969 C 111.398438 92.792969 114.75 96.140625 114.75 100.269531 L 114.75 135.722656 C 114.75 139.851562 111.398438 143.203125 107.269531 143.203125 L 27.378906 143.203125 C 23.246094 143.203125 19.898438 139.851562 19.898438 135.722656 L 19.898438 100.269531 C 19.898438 96.140625 23.246094 92.792969 27.378906 92.792969 Z M 27.378906 92.792969 " clip-rule="nonzero"/></clipPath><clipPath id="4309fa3c83"><path d="M 42.117188 72.332031 L 92.527344 72.332031 L 92.527344 122.742188 L 42.117188 122.742188 Z M 42.117188 72.332031 " clip-rule="nonzero"/></clipPath><clipPath id="5f4b939c71"><path d="M 49.597656 72.332031 L 85.046875 72.332031 C 89.179688 72.332031 92.527344 75.679688 92.527344 79.8125 L 92.527344 115.261719 C 92.527344 119.394531 89.179688 122.742188 85.046875 122.742188 L 49.597656 122.742188 C 45.464844 122.742188 42.117188 119.394531 42.117188 115.261719 L 42.117188 79.8125 C 42.117188 75.679688 45.464844 72.332031 49.597656 72.332031 Z M 49.597656 72.332031 " clip-rule="nonzero"/></clipPath></defs><g clip-path="url(#3027183ef5)"><g clip-path="url(#d906213563)"><path fill="#000000" d="M 63.945312 51.875 L 114.75 51.875 L 114.75 143.160156 L 63.945312 143.160156 Z M 63.945312 51.875 " fill-opacity="1" fill-rule="nonzero"/></g></g><g clip-path="url(#1ee5a5f263)"><g clip-path="url(#c5e298a2b2)"><path fill="#000000" d="M 19.898438 92.792969 L 114.8125 92.792969 L 114.8125 143.203125 L 19.898438 143.203125 Z M 19.898438 92.792969 " fill-opacity="1" fill-rule="nonzero"/></g></g><g clip-path="url(#4309fa3c83)"><g clip-path="url(#5f4b939c71)"><path fill="#000000" d="M 42.117188 72.332031 L 92.527344 72.332031 L 92.527344 122.742188 L 42.117188 122.742188 Z M 42.117188 72.332031 " fill-opacity="1" fill-rule="nonzero"/></g></g><g fill="#000000" fill-opacity="1"><g transform="translate(127.88925, 143.076287)"><g><path d="M 41.15625 -69.4375 C 34.464844 -69.4375 27.902344 -67.289062 23.355469 -62.113281 L 23.355469 -89.886719 L 3.660156 -89.886719 L 3.660156 0 L 23.355469 0 L 23.355469 -6.816406 C 28.027344 -1.011719 34.84375 0.882812 41.410156 0.882812 C 62.996094 0.882812 74.234375 -16.285156 74.234375 -35.097656 C 74.234375 -53.78125 63.375 -69.4375 41.15625 -69.4375 Z M 39.011719 -18.179688 C 30.425781 -18.179688 23.355469 -25.503906 23.355469 -34.59375 C 23.355469 -43.683594 30.425781 -51.128906 39.011719 -51.128906 C 49.238281 -51.128906 54.285156 -42.925781 54.285156 -34.59375 C 54.285156 -26.386719 49.109375 -18.179688 39.011719 -18.179688 Z M 39.011719 -18.179688 "/></g></g></g><g fill="#000000" fill-opacity="1"><g transform="translate(208.814294, 143.076287)"><g><path d="M 47.34375 -6.945312 L 47.34375 0 L 67.417969 0 L 67.417969 -68.300781 L 46.332031 -68.300781 L 46.332031 -31.183594 C 46.332031 -22.09375 40.148438 -17.042969 34.214844 -17.042969 C 28.785156 -17.042969 23.480469 -21.335938 23.480469 -30.804688 L 23.480469 -68.300781 L 3.410156 -68.300781 L 3.410156 -30.679688 C 3.28125 -13.507812 8.710938 0.882812 28.785156 0.882812 C 35.855469 0.882812 42.671875 -1.011719 47.34375 -6.945312 Z M 47.34375 -6.945312 "/></g></g></g><g fill="#000000" fill-opacity="1"><g transform="translate(285.068118, 143.076287)"><g><path d="M 2.777344 -83.324219 C 2.777344 -75.875 8.835938 -72.214844 14.898438 -72.214844 C 20.703125 -72.214844 26.636719 -75.875 26.636719 -83.324219 C 26.636719 -91.152344 20.578125 -94.9375 14.519531 -94.9375 C 8.710938 -94.9375 2.777344 -91.023438 2.777344 -83.324219 Z M 4.671875 -68.300781 L 24.871094 -68.300781 L 24.871094 0 L 4.671875 0 Z M 4.671875 -68.300781 "/></g></g></g><g fill="#000000" fill-opacity="1"><g transform="translate(318.902596, 143.076287)"><g><path d="M 23.230469 -88.375 L 3.03125 -88.375 L 3.03125 0 L 23.230469 0 Z M 23.230469 -88.375 "/></g></g></g><g fill="#000000" fill-opacity="1"><g transform="translate(350.338351, 143.076287)"><g><path d="M 34.84375 -69.4375 C 12.625 -69.4375 1.765625 -53.78125 1.765625 -35.097656 C 1.765625 -16.285156 13.003906 0.882812 34.59375 0.882812 C 41.15625 0.882812 47.847656 -1.011719 52.519531 -6.816406 L 52.519531 0 L 72.339844 0 L 72.339844 -89.003906 L 52.519531 -89.003906 L 52.519531 -62.113281 C 47.972656 -67.289062 41.535156 -69.4375 34.84375 -69.4375 Z M 36.992188 -18.179688 C 26.890625 -18.179688 21.714844 -26.386719 21.714844 -34.59375 C 21.714844 -42.925781 26.765625 -51.128906 36.992188 -51.128906 C 45.574219 -51.128906 52.519531 -43.683594 52.519531 -34.59375 C 52.519531 -25.503906 45.574219 -18.179688 36.992188 -18.179688 Z M 36.992188 -18.179688 "/></g></g></g><g fill="#000000" fill-opacity="1"><g transform="translate(431.515888, 143.076287)"><g><path d="M 2.523438 -46.332031 C 2.523438 -31.308594 15.90625 -26.386719 28.785156 -25.25 C 32.066406 -24.996094 39.640625 -25.628906 39.640625 -20.703125 C 39.640625 -18.433594 36.359375 -16.539062 31.4375 -16.539062 C 26.765625 -16.539062 21.589844 -18.304688 21.460938 -22.976562 L 1.515625 -22.976562 C 1.765625 -5.554688 14.140625 1.765625 30.425781 1.765625 C 45.574219 1.765625 59.589844 -4.039062 59.589844 -21.210938 C 59.589844 -37.371094 45.070312 -43.429688 30.804688 -43.808594 C 27.902344 -43.933594 22.597656 -44.058594 22.597656 -47.59375 C 22.597656 -51.257812 26.636719 -52.265625 29.542969 -52.265625 C 33.707031 -52.265625 39.011719 -51.886719 39.136719 -46.585938 L 58.199219 -46.585938 C 58.074219 -62.492188 45.324219 -69.941406 30.679688 -69.941406 C 15.402344 -69.941406 2.523438 -62.871094 2.523438 -46.332031 Z M 2.523438 -46.332031 "/></g></g></g><g fill="#000000" fill-opacity="1"><g transform="translate(496.533671, 143.076287)"><g><path d="M 45.449219 0.125 L 44.816406 -16.285156 C 43.050781 -15.90625 41.03125 -15.65625 39.136719 -15.65625 C 34.339844 -15.65625 29.921875 -17.546875 29.921875 -23.609375 L 29.921875 -50.5 L 44.1875 -50.5 L 44.1875 -67.542969 L 29.921875 -67.542969 L 29.921875 -82.3125 L 10.101562 -80.546875 L 10.101562 -67.542969 L 1.136719 -67.542969 L 1.136719 -50.5 L 10.101562 -50.5 L 10.101562 -23.609375 C 10.101562 -5.933594 19.191406 1.136719 34.214844 1.136719 C 37.621094 1.136719 41.410156 0.757812 45.449219 0.125 Z M 45.449219 0.125 "/></g></g></g><g fill="#000000" fill-opacity="1"><g transform="translate(548.926626, 143.076287)"><g><path d="M 34.84375 -69.4375 C 12.625 -69.4375 1.765625 -53.78125 1.765625 -35.097656 C 1.765625 -16.285156 13.003906 0.882812 34.59375 0.882812 C 41.15625 0.882812 47.847656 -1.011719 52.519531 -6.816406 L 52.519531 0 L 72.339844 0 L 72.339844 -68.300781 L 52.519531 -68.300781 L 52.519531 -61.230469 C 48.101562 -66.910156 41.535156 -69.4375 34.84375 -69.4375 Z M 36.992188 -18.179688 C 26.890625 -18.179688 21.714844 -26.386719 21.714844 -34.59375 C 21.714844 -42.925781 26.765625 -51.128906 36.992188 -51.128906 C 45.574219 -51.128906 52.519531 -43.683594 52.519531 -34.59375 C 52.519531 -25.503906 45.574219 -18.179688 36.992188 -18.179688 Z M 36.992188 -18.179688 "/></g></g></g><g fill="#000000" fill-opacity="1"><g transform="translate(630.104163, 143.076287)"><g><path d="M 45.449219 0.125 L 44.816406 -16.285156 C 43.050781 -15.90625 41.03125 -15.65625 39.136719 -15.65625 C 34.339844 -15.65625 29.921875 -17.546875 29.921875 -23.609375 L 29.921875 -50.5 L 44.1875 -50.5 L 44.1875 -67.542969 L 29.921875 -67.542969 L 29.921875 -82.3125 L 10.101562 -80.546875 L 10.101562 -67.542969 L 1.136719 -67.542969 L 1.136719 -50.5 L 10.101562 -50.5 L 10.101562 -23.609375 C 10.101562 -5.933594 19.191406 1.136719 34.214844 1.136719 C 37.621094 1.136719 41.410156 0.757812 45.449219 0.125 Z M 45.449219 0.125 "/></g></g></g><g fill="#000000" fill-opacity="1"><g transform="translate(682.497118, 143.076287)"><g><path d="M 2.777344 -83.324219 C 2.777344 -75.875 8.835938 -72.214844 14.898438 -72.214844 C 20.703125 -72.214844 26.636719 -75.875 26.636719 -83.324219 C 26.636719 -91.152344 20.578125 -94.9375 14.519531 -94.9375 C 8.710938 -94.9375 2.777344 -91.023438 2.777344 -83.324219 Z M 4.671875 -68.300781 L 24.871094 -68.300781 L 24.871094 0 L 4.671875 0 Z M 4.671875 -68.300781 "/></g></g></g><g fill="#000000" fill-opacity="1"><g transform="translate(716.331596, 143.076287)"><g><path d="M 73.351562 -34.085938 C 73.351562 -58.453125 55.171875 -70.574219 36.992188 -70.574219 C 18.683594 -70.574219 0.503906 -58.453125 0.503906 -34.085938 C 0.503906 -9.847656 18.8125 2.273438 36.992188 2.273438 C 55.171875 2.273438 73.351562 -9.847656 73.351562 -34.085938 Z M 20.453125 -34.085938 C 20.453125 -45.703125 28.660156 -51.507812 36.992188 -51.507812 C 46.082031 -51.507812 53.402344 -45.703125 53.402344 -34.085938 C 53.402344 -22.597656 45.195312 -16.917969 36.992188 -16.917969 C 28.660156 -16.917969 20.453125 -22.597656 20.453125 -34.085938 Z M 20.453125 -34.085938 "/></g></g></g><g fill="#000000" fill-opacity="1"><g transform="translate(796.246615, 143.076287)"><g><path d="M 22.976562 -61.484375 L 22.976562 -68.300781 L 2.902344 -68.300781 L 2.902344 0 L 23.988281 0 L 23.988281 -37.117188 C 23.988281 -45.828125 31.058594 -50.878906 36.992188 -50.878906 C 42.417969 -50.878906 47.59375 -46.710938 47.59375 -37.496094 L 47.59375 0 L 67.796875 0 L 67.796875 -37.621094 C 67.921875 -54.664062 62.617188 -69.058594 43.175781 -69.308594 C 35.855469 -69.308594 27.773438 -67.542969 22.976562 -61.484375 Z M 22.976562 -61.484375 "/></g></g></g></svg>