<svg xmlns="http://www.w3.org/2000/svg" xmlns:xlink="http://www.w3.org/1999/xlink" width="500" zoomAndPan="magnify" viewBox="0 0 375 374.999991" height="500" preserveAspectRatio="xMidYMid meet" version="1.0"><defs><clipPath id="ef04941b94"><path d="M 173.804688 8.203125 L 371.300781 8.203125 L 371.300781 363.855469 L 173.804688 363.855469 Z M 173.804688 8.203125 " clip-rule="nonzero"/></clipPath><clipPath id="1bdda470da"><path d="M 203.851562 8.203125 L 341.253906 8.203125 C 349.222656 8.203125 356.871094 11.367188 362.503906 17 C 368.136719 22.632812 371.300781 30.277344 371.300781 38.25 L 371.300781 333.191406 C 371.300781 341.167969 368.136719 348.808594 362.503906 354.445312 C 356.871094 360.078125 349.222656 363.242188 341.253906 363.242188 L 203.851562 363.242188 C 195.878906 363.242188 188.234375 360.078125 182.601562 354.445312 C 176.96875 348.808594 173.804688 341.167969 173.804688 333.191406 L 173.804688 38.25 C 173.804688 30.277344 176.96875 22.632812 182.601562 17 C 188.234375 11.367188 195.878906 8.203125 203.851562 8.203125 Z M 203.851562 8.203125 " clip-rule="nonzero"/></clipPath><clipPath id="374d5d179f"><path d="M 2.5625 167.269531 L 371.546875 167.269531 L 371.546875 363.242188 L 2.5625 363.242188 Z M 2.5625 167.269531 " clip-rule="nonzero"/></clipPath><clipPath id="2f356ede0b"><path d="M 32.613281 167.269531 L 341.253906 167.269531 C 349.222656 167.269531 356.871094 170.4375 362.503906 176.074219 C 368.136719 181.707031 371.300781 189.347656 371.300781 197.316406 L 371.300781 333.191406 C 371.300781 341.167969 368.136719 348.808594 362.503906 354.445312 C 356.871094 360.078125 349.222656 363.242188 341.253906 363.242188 L 32.613281 363.242188 C 24.636719 363.242188 16.996094 360.078125 11.363281 354.445312 C 5.726562 348.808594 2.5625 341.167969 2.5625 333.191406 L 2.5625 197.316406 C 2.5625 189.347656 5.726562 181.707031 11.363281 176.074219 C 16.996094 170.4375 24.636719 167.269531 32.613281 167.269531 Z M 32.613281 167.269531 " clip-rule="nonzero"/></clipPath><clipPath id="ef0ae05957"><path d="M 88.941406 87.734375 L 284.917969 87.734375 L 284.917969 283.710938 L 88.941406 283.710938 Z M 88.941406 87.734375 " clip-rule="nonzero"/></clipPath><clipPath id="05b08519e4"><path d="M 118.992188 87.734375 L 254.867188 87.734375 C 262.84375 87.734375 270.484375 90.898438 276.117188 96.53125 C 281.753906 102.175781 284.917969 109.816406 284.917969 117.785156 L 284.917969 253.660156 C 284.917969 261.628906 281.753906 269.269531 276.117188 274.910156 C 270.484375 280.546875 262.84375 283.710938 254.867188 283.710938 L 118.992188 283.710938 C 111.023438 283.710938 103.382812 280.546875 97.746094 274.910156 C 92.113281 269.269531 88.941406 261.628906 88.941406 253.660156 L 88.941406 117.785156 C 88.941406 109.816406 92.113281 102.175781 97.746094 96.53125 C 103.382812 90.898438 111.023438 87.734375 118.992188 87.734375 Z M 118.992188 87.734375 " clip-rule="nonzero"/></clipPath></defs><g clip-path="url(#ef04941b94)"><g clip-path="url(#1bdda470da)"><path fill="#000000" d="M 173.804688 8.203125 L 371.300781 8.203125 L 371.300781 363.085938 L 173.804688 363.085938 Z M 173.804688 8.203125 " fill-opacity="1" fill-rule="nonzero"/></g></g><g clip-path="url(#374d5d179f)"><g clip-path="url(#2f356ede0b)"><path fill="#000000" d="M 2.5625 167.269531 L 371.546875 167.269531 L 371.546875 363.242188 L 2.5625 363.242188 Z M 2.5625 167.269531 " fill-opacity="1" fill-rule="nonzero"/></g></g><g clip-path="url(#ef0ae05957)"><g clip-path="url(#05b08519e4)"><path fill="#000000" d="M 88.941406 87.734375 L 284.917969 87.734375 L 284.917969 283.710938 L 88.941406 283.710938 Z M 88.941406 87.734375 " fill-opacity="1" fill-rule="nonzero"/></g></g></svg>