<svg xmlns="http://www.w3.org/2000/svg" xmlns:xlink="http://www.w3.org/1999/xlink" width="500" zoomAndPan="magnify" viewBox="0 0 375 374.999991" height="500" preserveAspectRatio="xMidYMid meet" version="1.0"><defs><clipPath id="5bf9d964b3"><path d="M 17.25 0 L 357.75 0 C 362.324219 0 366.710938 1.816406 369.949219 5.050781 C 373.183594 8.289062 375 12.675781 375 17.25 L 375 357.75 C 375 362.324219 373.183594 366.710938 369.949219 369.949219 C 366.710938 373.183594 362.324219 375 357.75 375 L 17.25 375 C 12.675781 375 8.289062 373.183594 5.050781 369.949219 C 1.816406 366.710938 0 362.324219 0 357.75 L 0 17.25 C 0 12.675781 1.816406 8.289062 5.050781 5.050781 C 8.289062 1.816406 12.675781 0 17.25 0 Z M 17.25 0 " clip-rule="nonzero"/></clipPath><clipPath id="bf0c0bcade"><path d="M 181.070312 100.585938 L 277.765625 100.585938 L 277.765625 274.714844 L 181.070312 274.714844 Z M 181.070312 100.585938 " clip-rule="nonzero"/></clipPath><clipPath id="e9ac23a11a"><path d="M 198.320312 100.585938 L 260.515625 100.585938 C 270.042969 100.585938 277.765625 108.308594 277.765625 117.835938 L 277.765625 257.164062 C 277.765625 266.691406 270.042969 274.414062 260.515625 274.414062 L 198.320312 274.414062 C 188.792969 274.414062 181.070312 266.691406 181.070312 257.164062 L 181.070312 117.835938 C 181.070312 108.308594 188.792969 100.585938 198.320312 100.585938 Z M 198.320312 100.585938 " clip-rule="nonzero"/></clipPath><clipPath id="a2a269f1cf"><path d="M 97.234375 178.464844 L 277.886719 178.464844 L 277.886719 274.414062 L 97.234375 274.414062 Z M 97.234375 178.464844 " clip-rule="nonzero"/></clipPath><clipPath id="e320a3e748"><path d="M 114.484375 178.464844 L 260.515625 178.464844 C 270.042969 178.464844 277.765625 186.1875 277.765625 195.714844 L 277.765625 257.164062 C 277.765625 266.691406 270.042969 274.414062 260.515625 274.414062 L 114.484375 274.414062 C 104.957031 274.414062 97.234375 266.691406 97.234375 257.164062 L 97.234375 195.714844 C 97.234375 186.1875 104.957031 178.464844 114.484375 178.464844 Z M 114.484375 178.464844 " clip-rule="nonzero"/></clipPath><clipPath id="eb4022f0a6"><path d="M 139.527344 139.527344 L 235.472656 139.527344 L 235.472656 235.472656 L 139.527344 235.472656 Z M 139.527344 139.527344 " clip-rule="nonzero"/></clipPath><clipPath id="50fc272d22"><path d="M 156.777344 139.527344 L 218.222656 139.527344 C 227.75 139.527344 235.472656 147.25 235.472656 156.777344 L 235.472656 218.222656 C 235.472656 227.75 227.75 235.472656 218.222656 235.472656 L 156.777344 235.472656 C 147.25 235.472656 139.527344 227.75 139.527344 218.222656 L 139.527344 156.777344 C 139.527344 147.25 147.25 139.527344 156.777344 139.527344 Z M 156.777344 139.527344 " clip-rule="nonzero"/></clipPath></defs><g clip-path="url(#5bf9d964b3)"><rect x="-37.5" width="450" fill="#000000" y="-37.499999" height="449.999989" fill-opacity="1"/></g><g clip-path="url(#bf0c0bcade)"><g clip-path="url(#e9ac23a11a)"><path fill="#ffffff" d="M 181.070312 100.585938 L 277.765625 100.585938 L 277.765625 274.335938 L 181.070312 274.335938 Z M 181.070312 100.585938 " fill-opacity="1" fill-rule="nonzero"/></g></g><g clip-path="url(#a2a269f1cf)"><g clip-path="url(#e320a3e748)"><path fill="#ffffff" d="M 97.234375 178.464844 L 277.886719 178.464844 L 277.886719 274.414062 L 97.234375 274.414062 Z M 97.234375 178.464844 " fill-opacity="1" fill-rule="nonzero"/></g></g><g clip-path="url(#eb4022f0a6)"><g clip-path="url(#50fc272d22)"><path fill="#ffffff" d="M 139.527344 139.527344 L 235.472656 139.527344 L 235.472656 235.472656 L 139.527344 235.472656 Z M 139.527344 139.527344 " fill-opacity="1" fill-rule="nonzero"/></g></g></svg>